<svg xmlns="http://www.w3.org/2000/svg" viewBox="0 0 174.17 79.49"><g id="Layer_2" data-name="Layer 2"><g id="Layer_1-2" data-name="Layer 1"><path d="M174.13,28.8a2.6,2.6,0,0,1-1.4,1.95,2.33,2.33,0,0,1-.88.22,2.83,2.83,0,0,1-1.65,2.23,9.76,9.76,0,0,1-3.8.62,23.6,23.6,0,0,0-5.88.78c-1.63,2.28,1.2,3.17,2.59,1.23,1.46.59,3.48,1.89,2.31,3.63a4.6,4.6,0,0,0-.32.53,4,4,0,0,0-.22,1.88,5.11,5.11,0,0,1-.22,2.15,2,2,0,0,1-1,1.14,4.53,4.53,0,0,1-2.41.19,8.07,8.07,0,0,0-1.06-.07h-.42l-.12-.41a4.71,4.71,0,0,1-.19-1.08,1.43,1.43,0,0,0-.08-.43l-.13-.17a2.49,2.49,0,0,0-.46-.29h0a4.52,4.52,0,0,0-.59-.28h0a9.8,9.8,0,0,0-.44-2.32,7,7,0,0,0-.79-1.6,7.51,7.51,0,0,0-1.18-1.34c-.44-.4-.9-.76-1.35-1.1s-.9-.69-1.31-1.06A7.2,7.2,0,0,1,152,34a4.37,4.37,0,0,1-.4-.65,6.81,6.81,0,0,1-.31-.74,5.13,5.13,0,0,1-.3-1.55,6.55,6.55,0,0,1,.11-1.59,16.6,16.6,0,0,1,1-3.18,31.15,31.15,0,0,0,1.18-3.24,7.62,7.62,0,0,0,.22-3.45,8.6,8.6,0,0,1-.66,3.3c-.4,1.06-.92,2.06-1.41,3.1a15,15,0,0,0-1.22,3.29,7.31,7.31,0,0,0-.17,1.81,6.89,6.89,0,0,0,.33,1.81,8,8,0,0,0,.36.85,5.39,5.39,0,0,0,.5.8,7.71,7.71,0,0,0,1.26,1.29c.92.75,1.9,1.36,2.76,2.05a6.8,6.8,0,0,1,2,2.55,11.08,11.08,0,0,1,.76,2.3h0c.07.32.14.65.2,1,.26,1.05.34,1.84-1,3.17a7.69,7.69,0,0,1-1.21.92c-.22.14-.42.27-.6.4a3.92,3.92,0,0,0-.94,1.15v.14l0,1.2-1-.73a5.61,5.61,0,0,1-1.57-2.37,5.87,5.87,0,0,0-.89-1.61,9.65,9.65,0,0,1-2.1,3.11c-.32.3-.65.65-1,1-.53.54-1.07,1.1-1.58,1.53l-.61.52-.28-.76a6,6,0,0,1-.13-1.83c0-.21,0-.47,0-.73h0a8.26,8.26,0,0,0,.39-1.72,8,8,0,0,0-.31-3.32,6.91,6.91,0,0,0-.33-.79c-.12-.25-.25-.5-.39-.74-.28-.48-.59-1-.91-1.4a25.07,25.07,0,0,0-2.15-2.54,40.46,40.46,0,0,0-5-4.39l-2.61-2c-.44-.33-.86-.66-1.29-1l-1.28-1A24.21,24.21,0,0,1,127,25.44a11.87,11.87,0,0,1-1.54-2.76,12.55,12.55,0,0,1-.74-3.09,16.39,16.39,0,0,1,0-3.21c0-.54.11-1.07.19-1.61a11.8,11.8,0,0,1,.37-1.56,8.06,8.06,0,0,1,1.53-2.8,6.38,6.38,0,0,1,2.66-1.81,6.55,6.55,0,0,0-1.53.62,6.8,6.8,0,0,0-1.32,1,8.2,8.2,0,0,0-1.77,2.83,10.48,10.48,0,0,0-.46,1.61c-.11.55-.21,1.1-.28,1.65a16.19,16.19,0,0,0-.09,3.34,11.86,11.86,0,0,0,.7,3.31,12.59,12.59,0,0,0,1.58,3,17.31,17.31,0,0,0,2.24,2.51c.81.77,1.67,1.48,2.52,2.16l1.3,1c.42.34.86.68,1.3,1l2.63,2c.88.65,1.74,1.31,2.57,2s1.64,1.42,2.41,2.18a27.56,27.56,0,0,1,2.18,2.41c.33.42.65.86.94,1.31a9,9,0,0,1,.74,1.4,7.83,7.83,0,0,1,.49,3.15,8.8,8.8,0,0,1-.23,1.61,1.33,1.33,0,0,1-.06.12h0l-.11.16a8.78,8.78,0,0,0-.86,2.14,7.82,7.82,0,0,1-1.39,3,12.89,12.89,0,0,1-1.32,1.23c-.18.15-.36.3-.53.46s-.41.22-.62.33c0,0,0,.12,0,.33l0-.33a.61.61,0,0,1-.14.1l-.36.18a16.33,16.33,0,0,1-1.58.64c-.27.09-.54.17-.82.24l-.15,0a5.46,5.46,0,0,0,1.06-2,7.5,7.5,0,0,0,.22-2.9,11.29,11.29,0,0,0-.71-2.8,13.22,13.22,0,0,0-1.36-2.54,11.09,11.09,0,0,0-.91-1.14c-.33-.35-.67-.68-1-1-.7-.65-1.44-1.24-2.19-1.81C131.07,42,129.5,41,128,39.87a19.49,19.49,0,0,1-3.92-3.77,12.29,12.29,0,0,1-.75-1.13c-.23-.39-.45-.79-.65-1.2a18,18,0,0,1-1-2.54,20.34,20.34,0,0,1-.68-2.66,21.29,21.29,0,0,1-.34-2.75,16.78,16.78,0,0,1,.55-5.5,15.36,15.36,0,0,0-1,5.51,20,20,0,0,0,.78,5.6,18.55,18.55,0,0,0,1,2.67,12.58,12.58,0,0,0,.64,1.27c.25.43.5.83.78,1.22a15.49,15.49,0,0,0,1.88,2.16,23.69,23.69,0,0,0,2.16,1.85c1.49,1.15,3,2.17,4.54,3.27a19.73,19.73,0,0,1,2.13,1.72c.34.31.67.63,1,.95a9.3,9.3,0,0,1,.85,1,11.53,11.53,0,0,1,1.32,2.35,10.6,10.6,0,0,1,.75,2.58,6.89,6.89,0,0,1-.1,2.64,4.88,4.88,0,0,1-1.28,2.29l-.44.44.61,0a3.34,3.34,0,0,0,.91-.17c.28-.09.56-.19.83-.3a15.29,15.29,0,0,0,1.58-.76l.34-.19h0l.18.74a23.23,23.23,0,0,1,.53,3.29c.1.86.21,1.76.38,2.6a11,11,0,0,0,1.8,3.46c1,1.41,1.94,2.88,2,4.43.53.14,1.77.28,2.41.36a9.8,9.8,0,0,1,1.22.17c1.23.39,1.45.5,1.75,1.27a5.78,5.78,0,0,0,.34.73c.06.12.15.27.24.42a4.87,4.87,0,0,1,.75,1.6,2.43,2.43,0,0,1-.42,2.1c-.63.76-1.81,1.13-3.62,1.13-.73,0-1.43-.06-2-.1l-.33,0c-.47,0-1,0-1.57-.06a15.34,15.34,0,0,1-3.34-.29c-2-.49-2.26-1.63-2.56-2.84-.09-.35-.18-.72-.32-1.11-.31-.87-1.09-1.29-2-1.78a5.52,5.52,0,0,1-2.31-1.85,7,7,0,0,1-.57-1.22,4.43,4.43,0,0,0-.94-1.64,14.29,14.29,0,0,0-1.28-1.15A11.42,11.42,0,0,1,129,64.76a35.68,35.68,0,0,1-3.62-5.85c-.1-.2-.18-.43-.27-.66h0a5.59,5.59,0,0,0-2-1.55l-.44-.18-.16,0a7,7,0,0,1-.92.08,7.86,7.86,0,0,1-5.65-2.28,7.31,7.31,0,0,1-.64-.72,2.82,2.82,0,0,0-1-1h0l-.14,0h0l.14,0a13.34,13.34,0,0,1,1.2-.59l1.46-.65a10.53,10.53,0,0,0,1.46-.81,7.88,7.88,0,0,0,2.33-2.41,8.35,8.35,0,0,0,1.09-3.09,19.25,19.25,0,0,1-1.69,2.67,10.54,10.54,0,0,1-2.26,2.06c-.82.56-1.81,1-2.73,1.58a8.58,8.58,0,0,0-1.34,1h0l-.37.35h0l-.1.12a11.21,11.21,0,0,0-1.53,1.91l-.24.35a34,34,0,0,0-2,3.4,36.33,36.33,0,0,1-2.09,3.53c-.34.48-.7,1-1,1.43A30.07,30.07,0,0,0,104,67.23,9.84,9.84,0,0,0,103,70a9.11,9.11,0,0,0-.17,1.71,1.61,1.61,0,0,1,.49,0,2.47,2.47,0,0,1,1.22.8,1.83,1.83,0,0,1,.36.71,1.46,1.46,0,0,0,.09.21,1.07,1.07,0,0,0,.23,0l.29,0a9,9,0,0,1,1.11.36l.16.07a3.28,3.28,0,0,1,1.94,1.38,2.23,2.23,0,0,1,.16,2c-.46,1-1.76,1.27-2.81,1.51a22.28,22.28,0,0,1-4.92.62,10.15,10.15,0,0,1-4-.7c-.84-.37-2.31-1.15-2.66-2.25A2.76,2.76,0,0,1,95,74.17a4.34,4.34,0,0,0,.33-.64,2.34,2.34,0,0,0,.19-.6l-.19-.09a3,3,0,0,1-1.06-.7c-1-1-.52-2.88-.42-3.25a20,20,0,0,1,.92-2.43,9.7,9.7,0,0,0,1.06-3.69A28.8,28.8,0,0,1,97.14,56c.36-1.26.73-2.56,1-3.89.19-.94.06-1.28,0-1.39a1,1,0,0,0-.75-.2,8,8,0,0,0-1.17.12,19.71,19.71,0,0,1-2.87.18c-.83,0-1.65,0-2.39-.06h-.8A12.75,12.75,0,0,1,88,50.58a21.22,21.22,0,0,1-4.27-1.43c-.76-.32-1.47-.61-2.15-.84-.49-.17-1-.38-1.51-.61a9.93,9.93,0,0,0-3.49-1h-.06c-1,0-1.51.83-2.12,1.77-.18.27-.36.55-.56.82a6.39,6.39,0,0,0-1.17,2.65c-.11.52-.21,1-.31,1.61a18.14,18.14,0,0,1-1.63,5.54c-.24.45-.52.88-.79,1.3-.83,1.28-1.55,2.39-1.24,3.93s1.69,2.62,3,3.69c.5.4,1,.77,1.39,1.17a6.35,6.35,0,0,0,5,2.08h.63l.64,0c.29,0,.56,0,.83,0a2.76,2.76,0,0,1,2.22,1,4.91,4.91,0,0,1,1.37,3.07c-.15,2.09-2.74,2.15-4.63,2.2a12.4,12.4,0,0,0-1.35.07l-1.23.2a22.65,22.65,0,0,1-3.73.41A9.84,9.84,0,0,1,71.28,78,3.12,3.12,0,0,1,69,76.55c-.15-.18-.31-.39-.51-.61a7.73,7.73,0,0,0-2.24-1.57l-.47-.26a27.4,27.4,0,0,1-5.12-3.9c-.36-.33-.78-.69-1.23-1.06a18.65,18.65,0,0,1-3.58-3.58c-.91-1.4-.6-3.27-.34-4.92.1-.6.19-1.16.22-1.64a13,13,0,0,0-1-6.37l-.07-.13c-.23-.48-.6-1.28-1-1.46L53.38,51h-.13c-.11,0-.21.13-.44.43a3.1,3.1,0,0,1-1.06,1,9,9,0,0,1-2.93.78,5.91,5.91,0,0,0-3.07,1,11.06,11.06,0,0,0-1.34,1.4,8.31,8.31,0,0,1-3.49,3.51,7.38,7.38,0,0,1-1.64.51h-.05a11.07,11.07,0,0,0-2.13,1,7.6,7.6,0,0,0-2.29,3A8.86,8.86,0,0,0,34,66.3c-.08.44-.16.89-.28,1.37l-.15.58a5.85,5.85,0,0,0-.25,3.24,3.54,3.54,0,0,0,1-.29,3.93,3.93,0,0,1,1.73-.36,6.82,6.82,0,0,1,3.29,1.59A4.44,4.44,0,0,1,41,75.73a2.85,2.85,0,0,1-1,2.33,6.17,6.17,0,0,1-2.93.79l-.58.08a21.63,21.63,0,0,1-3.32.28h-.39c-1.92,0-4.56,0-5.38-2.24a18.6,18.6,0,0,1-.72-2.77,9.22,9.22,0,0,0-1.55-4.11c-1.3-1.73-1-3.37-.73-5.11.06-.34.12-.7.17-1.06a11.16,11.16,0,0,0,.08-3.44,8,8,0,0,0-.26-.91A4.37,4.37,0,0,1,24,57.29c.4-1.53,1.84-2,3.11-2.5A6.33,6.33,0,0,0,28.87,54c-.46-3.4,1.1-6.88,2.35-9.7.39-.87.7-1.8,1-2.79a19.9,19.9,0,0,1,2-4.67l.32-.49c1-1.59,2.14-3.22,3.13-4.88.13-.23.28-.46.41-.69a15.75,15.75,0,0,0,1.51-2.88,18.6,18.6,0,0,1,1.84-3.82c-1.42.08-4.15.11-9.44.17-5.06.05-10.8.11-11.95.29C16.74,25.07,8.61,27,5.53,33.28c-1.12,2.29-1.73,6-.39,8.73,1,2,4.21,5.31,6.21,5.49l.77.06c2.52.21,4.19.35,6.59,2a28.38,28.38,0,0,1,5.35,5.06l.58.69-.87.22a26.54,26.54,0,0,1-6.57,1.13,10.81,10.81,0,0,1-4.36-.87c-1.72-.72-2.85-1.2-3.67-3A3.69,3.69,0,0,1,9,51.81a8.31,8.31,0,0,0-.14-1A12.69,12.69,0,0,1,1.25,44.3,16.28,16.28,0,0,1,.41,34.21a12.8,12.8,0,0,1,4.52-7.53c8.37-6.89,18.13-7.34,28.45-7.81l1.35-.06a38.46,38.46,0,0,0,12-2.36c4.7-1.67,8.64-2.95,13-3.19h.1c1.15-.05,2.37-.08,3.63-.08,3.75,0,7.53.25,11.2.49s7.42.49,11.13.49h1.4a99.93,99.93,0,0,0,14.24-1.63c2-.33,4-.66,6-.94l.24,0c2.7-.37,5.31-1,8-1.52A2.3,2.3,0,0,0,116,10l0,0h0l-.41.31a15.07,15.07,0,0,0-1.15,1.11,14.7,14.7,0,0,0-1,1.27,11.94,11.94,0,0,0-.82,1.38,12.66,12.66,0,0,0-.64,1.46,14.34,14.34,0,0,0-.47,1.54c-.07.27-.12.53-.17.8l-.12.77a23.26,23.26,0,0,1-1.59,5.87,6.72,6.72,0,0,1-1.73,2.4,3.94,3.94,0,0,1-1.3.72,4.54,4.54,0,0,1-1.52.2,4,4,0,0,0,1.57,0,4.13,4.13,0,0,0,1.51-.6,5.67,5.67,0,0,0,1.2-1.09,8.57,8.57,0,0,0,.9-1.35,13.78,13.78,0,0,0,1.19-3c.15-.5.28-1,.39-1.53s.21-1,.3-1.55l.12-.77c0-.25.09-.49.15-.74a14.71,14.71,0,0,1,.41-1.44c.17-.48.35-1,.56-1.41s.44-.9.69-1.34a13.79,13.79,0,0,1,.84-1.26,12.14,12.14,0,0,1,1-1.17c.26-.27.53-.53.82-.78v0h0a10.09,10.09,0,0,1,.8-.63l.55-.3a4.28,4.28,0,0,0,1.57-1.62,9.81,9.81,0,0,1,.79-1.08,7.61,7.61,0,0,1,2.46-2,6,6,0,0,1,1-.37,13.77,13.77,0,0,1,4.25-.7h.69a10.43,10.43,0,0,1,2.72.26,3.26,3.26,0,0,0,2.38-.27c.55-.25,1.09-.52,1.64-.8l.95-.47A9.91,9.91,0,0,1,142.82.54a10.31,10.31,0,0,0,3.65-.2l.26-.05h0a11.89,11.89,0,0,1,3.69-.22,4.43,4.43,0,0,1,2.74,1.14A4,4,0,0,1,154,2.45a2.18,2.18,0,0,0,.44.71,3.71,3.71,0,0,0,1.05.33,4.28,4.28,0,0,1,1.8.69,6.75,6.75,0,0,1,2.12,3,9.43,9.43,0,0,1,.33,1.32c.35,1.78.66,2.59,1.92,2.41a1.34,1.34,0,0,0,.43-.14,3.51,3.51,0,0,0,1.1-.92L164,8.77l.13,1.42A2.93,2.93,0,0,1,163,13a11.47,11.47,0,0,1,2.11,2.23,8.65,8.65,0,0,1,.69,1.12l.21.38-.05,0a6.15,6.15,0,0,1,.32,1.08,4,4,0,0,1,.09.77v.09c0,.07.25.44.39.66a10.47,10.47,0,0,0,1.2,1.47l.35.38c.52.59,1,1.14,1.45,1.67A34.08,34.08,0,0,0,172.62,26l.39.36a2.39,2.39,0,0,1,1.12,2.43ZM113.76,52.59h0Zm45.35-38.18a9.1,9.1,0,0,1-1.8.44,24.64,24.64,0,0,0-3.82.69,7.15,7.15,0,0,0-1,.39,5.55,5.55,0,0,0-.87.59,4.5,4.5,0,0,0-1.21,1.7,4,4,0,0,0-.26,1,2.86,2.86,0,0,0,.07,1.05,2.22,2.22,0,0,0,.48.91,2.17,2.17,0,0,0,.8.58,2.56,2.56,0,0,1-.59-.73,2.13,2.13,0,0,1-.24-.84,3.07,3.07,0,0,1,.41-1.67,4.09,4.09,0,0,1,1.1-1.33,4.86,4.86,0,0,1,1.56-.78c1.14-.37,2.42-.51,3.69-.86a7.13,7.13,0,0,0,1.84-.75,4,4,0,0,0,1.41-1.37,5,5,0,0,1-1.61,1ZM53.25,51s5.14-9.46,14.84-9.83c0,0-10-1.64-14.84,9.83ZM69.67,35.37c-.16-2.84.35-5.27-.91-8.41a3.39,3.39,0,0,0-1.07-1.19c2.19,1.87.67,6.4,1.61,12S77,46.63,77,46.63a26.36,26.36,0,0,1-3-2.53,13.51,13.51,0,0,1-4.33-8.73Zm30.94,8.14a5.84,5.84,0,0,0-.67,1.93,13.09,13.09,0,0,0,0,4c0,.17,0,.33.07.48s0,.3,0,.46,0,.62,0,.93a17.13,17.13,0,0,1-.12,1.89c-.14,1.27-.42,2.55-.49,3.87a31,31,0,0,0,1.22-3.75,11.77,11.77,0,0,0,.27-2,8.51,8.51,0,0,0,0-1c0-.18,0-.35,0-.51s0-.34-.06-.5a19.16,19.16,0,0,1-.17-3.78,7,7,0,0,1,.36-1.82,2.85,2.85,0,0,1,1.11-1.48,2.12,2.12,0,0,0-.88.48,3.52,3.52,0,0,0-.64.8Z" style="fill:#fff;fill-rule:evenodd"/><polygon points="54.53 42.28 54.53 35.54 53.7 38.64 50.94 38.64 50.13 35.56 50.13 42.28 47.25 42.28 47.25 26.68 50.08 26.68 52.33 33.81 54.59 26.68 57.42 26.68 57.42 42.28 54.53 42.28 54.53 42.28"/><path d="M57.54,26.55h-3l-.06.18L52.33,33.4l-2.11-6.67,0-.18h-3V42.41h3.12v-5.9l.55,2.07.05.18h2.94l.05-.18.57-2.1v5.93h3.13V26.55Zm-.25.25V42.16H54.66V34.61L53.6,38.52H51l-1-3.91v7.55H47.37V26.8H50l2.34,7.42,2.35-7.42Z"/><path d="M63.46,29.56H61.8v5.28h1.66V29.56Zm0,12.72V37.72H61.8v4.56H58.92V28.42a1.74,1.74,0,0,1,1.75-1.74h4a1.75,1.75,0,0,1,1.75,1.74V42.28Z"/><path d="M61.92,29.68h1.42v5H61.92v-5Zm2.7-3.13h-4a1.87,1.87,0,0,0-1.87,1.87v14h3.12V37.84h1.42v4.57h3.15v-14a1.87,1.87,0,0,0-1.87-1.87ZM61.68,35h1.91V29.43H61.68V35Zm2.94-8.16a1.63,1.63,0,0,1,1.62,1.62V42.16H63.59V37.6H61.68v4.56H59.05V28.42a1.61,1.61,0,0,1,1.62-1.62Z"/><polygon points="72.6 42.28 72.55 42.1 70.6 35.9 70.58 35.9 70.58 42.28 67.69 42.28 67.69 26.68 70.58 26.68 70.58 32.97 72.58 26.68 75.51 26.68 73.02 34.46 75.51 42.28 72.6 42.28 72.6 42.28"/><path d="M75.68,26.55H72.49l-.06.18L70.7,32.18V26.55H67.57V42.41H70.7V36.62l1.73,5.52,0,.08,0,.19h3.18l-.1-.33-2.43-7.62,2.43-7.58.1-.33Zm-.34.25-2.45,7.66,2.45,7.7H72.69l0-.09-2-6.29h-.24v6.38H67.82V26.8h2.63v6.34h.2l2-6.34Z"/><polygon points="76.01 42.28 76.01 26.68 83.45 26.68 83.45 29.56 78.89 29.56 78.89 33.02 82.53 33.02 82.53 35.9 78.89 35.9 78.89 39.38 83.45 39.38 83.45 42.28 76.01 42.28 76.01 42.28"/><path d="M83.58,26.55H75.89V42.41h7.69V39.26H79V36h3.64V32.9H79V29.68h4.56V26.55Zm-.25.25v2.63H78.77v3.71h3.64v2.64H78.77v3.73h4.56v2.65H76.14V26.8Z"/><polygon points="88.17 26.68 91.04 26.68 91.04 42.28 88.17 42.28 88.17 26.68 88.17 26.68"/><path d="M91.17,26.55H88V42.41h3.13V26.55Zm-.25,15.61H88.29V26.8h2.63V42.16Z"/><polygon points="96.93 42.28 95.21 36.32 95.21 42.28 92.33 42.28 92.33 26.68 95.16 26.68 96.87 32.27 96.87 26.68 99.78 26.68 99.78 42.28 96.93 42.28 96.93 42.28"/><path d="M99.9,26.55H96.75v4.9L95.3,26.73l0-.18h-3V42.41h3.13V37.2l1.44,5,0,.18H99.9V26.55Zm-.25.25V42.16H97l-1.93-6.71v6.71H92.46V26.8h2.61L97,33.1V26.8Z"/><polygon points="105.01 26.68 107.89 26.68 107.89 42.28 105.01 42.28 105.01 26.68 105.01 26.68"/><path d="M108,26.55h-3.13V42.41H108V26.55Zm-.25,15.61h-2.63V26.8h2.63V42.16Z"/><polygon points="113.77 42.28 112.06 36.32 112.06 42.28 109.18 42.28 109.18 26.68 112.01 26.68 113.72 32.27 113.72 26.68 116.62 26.68 116.62 42.28 113.77 42.28 113.77 42.28"/><path d="M116.75,26.55H113.6v4.9l-1.45-4.72-.05-.18h-3V42.41h3.12V37.2l1.45,5,.05.18h3.07V26.55Zm-.25.25V42.16h-2.63l-1.93-6.71v6.71H109.3V26.8h2.61l1.94,6.3V26.8Z"/><path d="M122.5,29.56h-1.67v9.82h1.67V29.56ZM118,42.28V26.68h5.7a1.74,1.74,0,0,1,1.75,1.74V40.53a1.77,1.77,0,0,1-1.75,1.75Z"/><path d="M121,29.68h1.41v9.58H121V29.68Zm2.69-3.13h-5.82V42.41h5.82a1.89,1.89,0,0,0,1.87-1.87V28.42a1.87,1.87,0,0,0-1.87-1.87Zm-2.94,13h1.91V29.43h-1.91V39.51Zm2.94-12.71a1.63,1.63,0,0,1,1.63,1.62V40.54a1.65,1.65,0,0,1-1.63,1.62h-5.57V26.8Z"/><polygon points="126.86 26.68 129.74 26.68 129.74 42.28 126.86 42.28 126.86 26.68 126.86 26.68"/><path d="M129.86,26.55h-3.12V42.41h3.12V26.55Zm-.24,15.61H127V26.8h2.63V42.16Z"/><path d="M135.57,29.56h-1.66v5.28h1.66V29.56Zm0,12.72V37.72h-1.66v4.56H131V28.42a1.74,1.74,0,0,1,1.75-1.74h3.95a1.74,1.74,0,0,1,1.74,1.74V42.28Z"/><path d="M134,29.68h1.42v5H134v-5Zm2.69-3.13h-3.94a1.87,1.87,0,0,0-1.87,1.87v14H134V37.84h1.42v4.57h3.15v-14a1.88,1.88,0,0,0-1.88-1.87ZM133.79,35h1.91V29.43h-1.91V35Zm2.93-8.16a1.63,1.63,0,0,1,1.63,1.62V42.16H135.7V37.6h-1.91v4.56h-2.64V28.42a1.62,1.62,0,0,1,1.63-1.62Z"/></g></g></svg>