<svg xmlns="http://www.w3.org/2000/svg" viewBox="0 0 124.76 104.07"><g id="Layer_2" data-name="Layer 2"><g id="Layer_1-2" data-name="Layer 1"><path d="M42.61,32a2.31,2.31,0,0,1,1.46-2.52q8.85-5.07,17.72-10.12L88.21,4.16c2-1.17,4.06-2.38,6.13-3.5S97.71-.14,99,2c4.41,7.55,8.85,15.08,13.24,22.64,4,7,8,14,12,21,1,1.72.71,2.86-1,3.91-3.94,2.36-7.92,4.65-11.9,6.94-3.33,1.92-6.71,3.78-10,5.7s-6.47,3.8-9.72,5.67q-9,5.2-18.12,10.34a8.35,8.35,0,0,1-2.18,1,2.28,2.28,0,0,1-2.66-1.22c-2.52-4.37-5.07-8.72-7.6-13.09-.67-1.15-1.29-2.3-.2-3.59a2.59,2.59,0,0,1,4.4.38c1.9,3.24,3.74,6.52,5.56,9.81.85,1.53,1,1.64,2.49.82l29.7-17c4.77-2.73,9.53-5.49,14.3-8.21,1-.56,1.33-1,.57-2.16-2.28-3.47-4.25-7.13-6.31-10.73-2.93-5.11-5.9-10.21-8.82-15.33-2.08-3.65-4.18-7.28-6.28-10.92-1-1.79-1.21-1.81-3-.73C90.21,9,87.1,10.92,83.9,12.66c-1,.54-.92,1-.49,1.76,1.19,2,2.33,4.08,3.59,6,1.89,3,1.6,4.35-1.37,6L70.25,35.28c-1.86,1.07-3.17.85-4.34-1-1.49-2.38-2.85-4.83-4.24-7.27-.48-.84-.86-1.18-1.9-.54-3.32,2-6.72,3.94-10.12,5.84-.83.47-1,.85-.51,1.75,2,3.26,3.81,6.57,5.7,9.87a5.74,5.74,0,0,1,.46.93,2.7,2.7,0,0,1-1.08,3.41,3,3,0,0,1-3.58-1.11c-1.32-2.18-2.55-4.43-3.82-6.64s-2.41-4.28-3.68-6.38A3.16,3.16,0,0,1,42.61,32ZM82.16,21.89c0,.09-.26-.11-.42-.37A42.84,42.84,0,0,1,79,16.86c-.54-1.22-1.06-1-1.91-.52-3.55,2.07-7.08,4.17-10.68,6.15-1,.55-1,1-.52,1.86,1,1.59,1.94,3.16,2.82,4.79.43.79.76.78,1.5.34,3.67-2.15,7.39-4.23,11.09-6.34A1.31,1.31,0,0,0,82.16,21.89Z" style="fill:#fff"/><path d="M14.57,21.25c3.43,0,6.85.08,10.27,0a4.36,4.36,0,0,1,4.27,2.47q4.61,8,9.22,16c3.46,6,6.9,12,10.37,18,4.46,7.71,9,15.38,13.37,23.12.78,1.37,1.43,1.85,3.14,1.57a9.69,9.69,0,0,1,7.69,2.31,2.24,2.24,0,0,0,3,.13c4.57-2.77,9.16-5.51,13.84-8.09C95.91,73.31,102,69.76,108,66.23c2.73-1.58,5.48-3.14,8.26-4.64,1.65-.89,2.68-.57,3.56.93a2.64,2.64,0,0,1-1.1,3.63c-5.68,3.27-11.4,6.5-17.08,9.77-4.77,2.75-9.51,5.56-14.27,8.32q-4.48,2.6-9,5.11a2,2,0,0,0-1.21,2.48c1,4.32-2.08,9.64-6.23,11.26-4.79,1.87-9.42,1-12.57-2.26a11.16,11.16,0,0,1-.44-14.68,1.26,1.26,0,0,0,.15-1.78q-4.28-7.5-8.66-14.93c-4-6.85-7.86-13.82-11.83-20.71-3.28-5.68-6.65-11.32-10-17-.78-1.34-1.69-2.61-2.35-4a2,2,0,0,0-2.17-1.15q-10,0-20.09,0c-2.39,0-3.71-2-2.6-3.95.67-1.19,1.92-1.39,3.15-1.4C7.22,21.23,10.9,21.25,14.57,21.25ZM72.19,93.5a5.89,5.89,0,1,0-11.78-.23,6,6,0,0,0,6,5.88C69.41,99.22,72.34,96.35,72.19,93.5Z" style="fill:#fff"/><path d="M81.37,59.28c-1.31.15-1.75-1.29-2.06-2.38-.38-1.32.76-2.32,1.77-2.87,6.25-3.39,12.37-7,18.48-10.65,1.84-1.1,3.73-2.13,5.63-3.13,1.09-.57,2.24-1,3.37,0a2.73,2.73,0,0,1,.75,3.13,2.49,2.49,0,0,1-1.6,1.49c-3,1.42-5.7,3.34-8.61,4.9-3.79,2-7.47,4.28-11.19,6.44-1.34.77-2.69,1.54-4,2.35A4.94,4.94,0,0,1,81.37,59.28Z" style="fill:#fff"/><path d="M55.29,54.26A2.47,2.47,0,0,1,58,51.75a2.83,2.83,0,0,1,2.62,2.6,2.87,2.87,0,0,1-2.89,2.49A2.37,2.37,0,0,1,55.29,54.26Z" style="fill:#fff"/></g></g></svg>