<svg xmlns="http://www.w3.org/2000/svg" viewBox="0 0 101.95 102.64"><g id="Layer_2" data-name="Layer 2"><g id="Layer_1-2" data-name="Layer 1"><path d="M17.25,48.88A40.83,40.83,0,0,0,18.54,60.5a33.41,33.41,0,0,0,12,17.83,32.34,32.34,0,0,0,17,6.75,35.17,35.17,0,0,0,9.09-.35,32.52,32.52,0,0,0,18-9.28,33.57,33.57,0,0,0,8.22-13.21,31.61,31.61,0,0,0,1.82-11A34.42,34.42,0,0,0,80.06,34.6a34,34,0,0,0-17-14.78,35.16,35.16,0,0,0-11.3-2.34,5.58,5.58,0,0,1-1.3-.16,1.39,1.39,0,0,1-1.05-1.74,1.49,1.49,0,0,1,1.48-1.26,25.41,25.41,0,0,1,7.34.66A37.28,37.28,0,0,1,87.76,53.76,39.81,39.81,0,0,1,85.37,64.5a37.77,37.77,0,0,1-8,12.86,34,34,0,0,1-8.56,6.56,36.6,36.6,0,0,1-12.26,4.25A37.58,37.58,0,0,1,48,88.4a36,36,0,0,1-10-2.23A37.29,37.29,0,0,1,14.52,57.65a51.17,51.17,0,0,1-.68-10.79c0-.46.26-1.14-.21-1.34s-.86.46-1.21.81Q7.71,51,3,55.71c-.78.79-1.57,1.16-2.51.32s-.67-1.51.22-2.52c4.06-4.6,8.64-8.69,12.89-13.12,1.57-1.63,2.56-1.54,4.1.07,2,2.06,4.05,4,6.06,6.07q3.56,3.61,7.08,7.29A1.41,1.41,0,0,1,30.8,56a1.49,1.49,0,0,1-2.32-.15Q23.64,51,18.76,46.14c-.22-.22-.43-.44-.66-.65s-.36-.44-.67-.26-.18.38-.18.59Z" style="fill:#fff"/><path d="M101.87,51.3a50.62,50.62,0,0,1-1.75,13.11,46.35,46.35,0,0,1-5.3,13.14A50.42,50.42,0,0,1,84.31,90.17a51.66,51.66,0,0,1-14.87,9.1A49.7,49.7,0,0,1,56.8,102.4c-1.85.21-3.69.19-5.54.24-1.09,0-1.85-.39-1.86-1.56s.71-1.58,1.81-1.61a48.44,48.44,0,0,0,18.7-4A47.42,47.42,0,0,0,87,82.76a48.2,48.2,0,0,0,8.51-14.3A41.46,41.46,0,0,0,98.25,57a46.75,46.75,0,0,0,.47-5.78A52.42,52.42,0,0,0,95.6,34.59a48.56,48.56,0,0,0-9.74-15.85,47.11,47.11,0,0,0-16-11.39A45.05,45.05,0,0,0,51.75,3.4a2.5,2.5,0,0,1-2-.61,1.62,1.62,0,0,1-.33-1.74,1.68,1.68,0,0,1,1.7-1,40.09,40.09,0,0,1,7.09.61,49.8,49.8,0,0,1,11.29,3A50.38,50.38,0,0,1,80.26,9.46a52.91,52.91,0,0,1,7.29,6.31,51.43,51.43,0,0,1,9.88,14.65A55.28,55.28,0,0,1,101.23,43,30.78,30.78,0,0,1,101.87,51.3Z" style="fill:#fff"/><path d="M53.85,54.91c0,.42,0,.85,0,1.28-.07,1.22-.43,2.19-1.92,2.13-.66,0-.9.32-1,1-.45,3-.47,3-3.52,3-.26,0-.53,0-.79,0-1.06.1-1.38-.5-1.17-1.38s.55-1.83.12-2.44-1.52-.11-2.31-.14c-1.86-.08-3.72,0-5.57,0-1.44,0-1.65-.49-1.52-1.91a10.49,10.49,0,0,1,2.15-4.87C40.89,47.68,43.5,43.88,46,40a2.55,2.55,0,0,1,2.17-1.27c.92,0,1.85,0,2.78,0,1.16,0,1.42.52.8,1.46L45,50.4a8.29,8.29,0,0,0-.78,1.35c-.21.49-1,.85-.75,1.3.32.61,1.12.16,1.7.28,1.32.25,1.94-.34,2.12-1.63a11.91,11.91,0,0,1,.61-2.15,1,1,0,0,1,.88-.71c1,0,2,0,3,0a.69.69,0,0,1,.73.76,8.36,8.36,0,0,1-.13,1.58c-.39,1.93-.17,2.29,1.69,2.62.48.09.65-.22.76-.55a6.62,6.62,0,0,1,2.55-3.12c.39-.28.56-.54.2-1-2.16-2.55-.82-6.92,1.76-8.78a9.94,9.94,0,0,1,10-1.16c4.11,1.7,3.71,7,1.66,9.18-1,1-1.18,1.59-.37,2.91,1.85,3,0,8.4-3.32,10.05s-6.76,2.1-10.24.22a5.49,5.49,0,0,1-2.92-4.67c-.06-.65,0-1.32,0-2Zm9.55-2.4a9.69,9.69,0,0,0-1.32,0,2.91,2.91,0,0,0-2.64,2.81A2.41,2.41,0,0,0,61.59,58a4.11,4.11,0,0,0,2.91-.59A3.21,3.21,0,0,0,66.19,54C65.81,52.49,64.66,52.4,63.4,52.51ZM64,48a5.21,5.21,0,0,0,.79,0,2.93,2.93,0,0,0,2.68-3.51c-.16-1.08-1.52-1.74-3.2-1.5a3.34,3.34,0,0,0-2.89,3.23C61.41,47.37,62.33,48,64,48Z" style="fill:#fff"/></g></g></svg>